<?xml version="1.0" standalone="no"?>
<!DOCTYPE svg PUBLIC "-//W3C//DTD SVG 20010904//EN"
 "http://www.w3.org/TR/2001/REC-SVG-20010904/DTD/svg10.dtd">
<svg version="1.0" xmlns="http://www.w3.org/2000/svg"
 width="1664.000000pt" height="1514.000000pt" viewBox="0 0 1664.000000 1514.000000"
 preserveAspectRatio="xMidYMid meet">

<g transform="translate(0.000000,1514.000000) scale(0.100000,-0.100000)"
fill="#000000" stroke="none">
<path d="M8105 15129 c-332 -25 -663 -116 -954 -264 -247 -125 -455 -278 -662
-487 l-126 -127 -493 410 c-271 225 -494 409 -496 409 -2 0 -4 -1411 -4 -3135
l0 -3135 495 0 495 0 0 2708 c0 1489 4 2713 9 2720 6 11 86 -51 312 -240 l304
-255 120 111 c244 223 449 349 712 435 652 213 1353 19 1835 -510 354 -388
562 -868 618 -1428 6 -67 10 -707 10 -1822 l0 -1719 495 0 495 0 -1 1163 c-1
1601 -12 2508 -33 2657 -60 428 -181 785 -384 1128 -494 833 -1295 1309 -2327
1382 -158 11 -260 11 -420 -1z"/>
<path d="M7987 11148 c-75 -189 -252 -633 -393 -988 -141 -355 -258 -651 -261
-657 -4 -10 114 -13 558 -15 l564 -3 3 -97 3 -98 -261 0 -260 0 0 -44 c0 -56
12 -53 -285 -61 -126 -3 -280 -8 -342 -11 l-112 -6 22 -32 c12 -18 47 -64 77
-104 l55 -71 790 2 789 2 72 160 c39 88 71 161 70 162 -1 1 -19 -2 -41 -7 -35
-8 -204 -29 -372 -45 l-53 -5 0 30 c0 29 -1 30 -50 30 l-50 0 0 1030 0 1030
-25 0 -25 0 0 -362 c0 -199 -4 -358 -8 -353 -7 8 -224 593 -298 803 -10 28
-21 52 -25 52 -3 0 -67 -154 -142 -342z"/>
<path d="M8531 11172 c-1 -7 10 -57 23 -110 77 -304 109 -554 110 -847 1 -302
-26 -494 -105 -739 -21 -66 -37 -122 -35 -123 6 -6 886 52 886 58 0 13 -879
1773 -879 1761z"/>
<path d="M7100 8710 l0 -80 1205 0 1205 0 0 80 0 80 -1205 0 -1205 0 0 -80z"/>
<path d="M5370 8422 c0 -329 32 -546 121 -817 124 -376 363 -750 689 -1075
238 -239 465 -403 745 -540 297 -146 551 -216 872 -240 142 -11 242 -5 224 13
-5 5 -52 21 -103 34 -485 125 -881 473 -1168 1026 -247 474 -367 972 -387
1600 l-6 207 -494 0 -493 0 0 -208z"/>
<path d="M10267 8388 c-13 -482 -86 -862 -244 -1263 -270 -683 -694 -1136
-1218 -1300 -60 -19 -129 -39 -152 -45 -109 -27 -2 -44 187 -30 171 13 283 32
440 75 430 116 809 344 1166 699 447 447 698 907 788 1446 20 120 36 345 36
523 l0 137 -498 0 -499 0 -6 -242z"/>
<path d="M5963 5401 c-32 -27 -76 -65 -98 -84 l-40 -36 65 0 c63 0 67 1 125
49 l59 49 31 -24 c97 -80 90 -76 153 -73 l60 3 -95 83 c-93 81 -95 82 -148 82
-50 0 -58 -4 -112 -49z"/>
<path d="M6020 4645 l0 -535 50 0 50 0 0 535 0 535 -50 0 -50 0 0 -535z"/>
<path d="M6550 4645 l0 -535 275 0 275 0 0 45 0 45 -225 0 -225 0 0 490 0 490
-50 0 -50 0 0 -535z"/>
<path d="M7390 4645 l0 -535 295 0 295 0 0 45 0 45 -240 0 -240 0 0 200 0 200
230 0 230 0 0 50 0 50 -230 0 -230 0 0 195 0 195 240 0 240 0 0 45 0 45 -295
0 -295 0 0 -535z"/>
<path d="M8970 4645 l0 -535 206 0 c232 0 307 12 414 64 166 80 280 269 280
465 0 205 -110 391 -283 476 -104 51 -194 65 -423 65 l-194 0 0 -535z m465
422 c180 -50 297 -179 328 -361 22 -129 -27 -277 -125 -376 -94 -95 -208 -130
-430 -130 l-138 0 0 446 0 447 158 -6 c86 -3 180 -12 207 -20z"/>
<path d="M10230 4645 l0 -535 295 0 295 0 0 45 0 45 -240 0 -240 0 0 200 0
200 230 0 230 0 0 50 0 50 -230 0 -230 0 0 195 0 195 240 0 240 0 0 45 0 45
-295 0 -295 0 0 -535z"/>
<path d="M3866 4400 c-97 -38 -146 -110 -146 -215 0 -106 53 -181 154 -220 63
-24 214 -18 271 12 83 44 125 114 125 210 0 105 -63 188 -164 218 -69 21 -180
18 -240 -5z"/>
<path d="M13225 4404 c-100 -35 -155 -114 -155 -219 0 -106 53 -181 154 -220
63 -24 214 -18 271 12 83 44 125 114 125 210 0 105 -63 188 -164 218 -62 19
-178 18 -231 -1z"/>
<path d="M50 4228 c97 -20 148 -39 184 -70 22 -20 281 -395 624 -908 l587
-875 153 -3 152 -3 0 179 0 179 -505 756 -506 757 -367 -1 c-254 -1 -353 -4
-322 -11z"/>
<path d="M1440 4230 c8 -5 23 -10 34 -10 42 0 100 -26 140 -62 77 -67 76 -61
96 -626 10 -277 20 -506 23 -509 14 -13 17 68 20 527 3 532 2 527 65 594 31
33 115 75 152 77 14 0 34 4 45 9 12 5 -106 9 -285 9 -200 1 -300 -3 -290 -9z"/>
<path d="M12456 4078 c-95 -61 -243 -107 -343 -108 l-43 0 0 -150 0 -150 -59
0 c-39 0 -63 -5 -71 -15 -10 -12 -2 -14 57 -17 l68 -3 5 -510 c6 -555 4 -542
65 -633 30 -45 76 -80 150 -113 41 -19 73 -24 175 -27 145 -5 212 9 322 64 71
36 178 129 178 155 0 8 -3 10 -8 4 -4 -6 -27 -27 -52 -47 -103 -82 -199 -107
-267 -69 -21 12 -49 37 -61 56 -50 73 -52 92 -52 626 l0 499 177 2 c130 2 177
6 181 16 3 9 -37 12 -177 12 l-181 0 -2 223 -3 223 -59 -38z"/>
<path d="M299 3784 c0 -5 -6 -279 -13 -609 -13 -655 -12 -643 -74 -709 -34
-36 -117 -76 -159 -76 -17 0 -35 -4 -38 -10 -4 -7 97 -10 297 -10 199 0 298 4
288 10 -8 5 -28 10 -45 10 -44 0 -127 42 -158 80 -59 70 -58 55 -70 707 -7
331 -15 605 -19 609 -5 4 -8 3 -9 -2z"/>
<path d="M2564 3755 c-251 -55 -452 -245 -520 -495 -28 -102 -24 -310 7 -415
36 -118 91 -208 178 -295 121 -120 264 -189 406 -196 l70 -4 -40 15 c-116 45
-158 168 -175 510 -12 222 1 531 25 650 28 134 77 208 147 222 15 3 31 10 34
14 8 13 -61 10 -132 -6z"/>
<path d="M2824 3761 c3 -4 18 -11 34 -14 72 -14 121 -97 149 -247 22 -122 26
-693 5 -834 -27 -181 -78 -276 -162 -303 l-35 -11 49 -1 c104 -2 265 63 379
154 104 83 190 221 228 368 24 92 25 269 3 370 -42 194 -176 363 -354 451 -92
45 -200 75 -268 76 -18 0 -31 -4 -28 -9z"/>
<path d="M4140 3743 c-123 -40 -256 -63 -412 -70 -82 -3 -148 -10 -148 -15 0
-4 19 -8 43 -8 23 0 61 -9 85 -20 74 -33 72 -20 72 -607 0 -473 -2 -521 -18
-553 -19 -40 -88 -80 -137 -80 -16 0 -37 -5 -45 -10 -10 -6 135 -10 418 -10
286 0 431 3 427 10 -3 6 -18 10 -33 10 -49 0 -98 19 -128 51 l-29 30 -3 650
c-1 357 -6 649 -10 648 -4 -1 -41 -12 -82 -26z"/>
<path d="M5022 3744 c-96 -36 -242 -63 -413 -75 -145 -10 -203 -19 -129 -19
53 0 107 -21 137 -52 l28 -29 0 -549 0 -549 -28 -29 c-28 -29 -84 -52 -128
-52 -13 0 -31 -5 -39 -10 -10 -6 137 -10 425 -10 288 0 435 4 425 10 -8 5 -28
10 -45 10 -47 1 -112 35 -135 72 -19 32 -20 49 -20 671 0 350 -3 636 -7 636
-5 -1 -36 -12 -71 -25z"/>
<path d="M5443 3752 c-99 -35 -166 -97 -218 -199 -32 -65 -34 -97 -3 -58 27
34 91 64 138 65 48 0 100 -28 127 -69 45 -67 22 -187 -46 -244 -18 -15 -29
-32 -25 -38 13 -22 79 -41 146 -41 111 0 199 56 250 161 19 39 23 62 23 146 0
89 -3 106 -27 150 -31 59 -57 85 -118 116 -62 31 -176 36 -247 11z"/>
<path d="M6480 3761 c-65 -38 -306 -84 -515 -97 -107 -7 -108 -8 -56 -16 68
-10 99 -26 125 -61 21 -28 21 -39 24 -555 2 -487 1 -530 -15 -562 -20 -40 -89
-80 -138 -80 -16 0 -37 -5 -45 -10 -10 -6 135 -10 418 -10 286 0 431 3 427 10
-3 6 -18 10 -33 10 -49 0 -98 19 -128 51 l-29 30 -3 650 c-1 357 -6 649 -10
649 -4 0 -14 -5 -22 -9z"/>
<path d="M6880 3760 c-80 -17 -164 -66 -224 -131 -31 -33 -56 -64 -56 -69 0
-5 23 5 50 22 93 58 220 46 274 -25 45 -58 47 -92 44 -603 -3 -466 -4 -483
-23 -504 -26 -30 -92 -60 -132 -60 -17 0 -35 -4 -38 -10 -4 -7 138 -10 420
-10 238 0 424 4 421 9 -3 4 -25 11 -49 13 -60 7 -97 27 -124 67 l-23 34 0 481
c0 533 -3 559 -62 647 -37 54 -106 104 -174 125 -59 19 -242 27 -304 14z"/>
<path d="M7790 3760 c-80 -17 -164 -66 -224 -131 -31 -33 -56 -64 -56 -69 0
-5 22 4 49 21 93 58 221 47 275 -24 45 -58 47 -92 44 -604 l-3 -482 -28 -29
c-29 -30 -84 -52 -130 -52 -14 0 -29 -4 -32 -10 -4 -7 141 -10 427 -10 283 0
428 4 418 10 -8 5 -29 10 -45 10 -49 0 -118 40 -137 80 -16 32 -18 78 -18 510
0 526 -3 554 -62 641 -37 54 -106 104 -174 125 -59 19 -242 27 -304 14z"/>
<path d="M9125 3755 c-179 -39 -339 -148 -434 -295 -81 -125 -117 -271 -108
-440 10 -193 73 -337 202 -465 126 -126 261 -193 405 -201 l75 -4 -42 16
c-133 50 -176 214 -176 689 -1 489 33 630 168 691 l50 23 -40 0 c-22 0 -67 -6
-100 -14z"/>
<path d="M9384 3761 c3 -4 19 -11 35 -14 74 -15 123 -106 152 -282 18 -108 18
-688 0 -800 -28 -178 -64 -250 -143 -289 l-52 -26 42 0 c64 0 140 19 219 55
188 87 311 222 380 420 26 75 28 91 28 240 0 149 -2 165 -28 240 -62 177 -179
310 -342 391 -87 43 -195 73 -263 74 -18 0 -31 -4 -28 -9z"/>
<path d="M10675 3743 c-110 -37 -249 -62 -416 -74 -146 -11 -203 -19 -128 -19
55 0 110 -20 141 -50 l28 -28 0 -419 c0 -230 5 -452 10 -493 28 -213 153 -310
399 -310 182 0 311 55 396 169 36 50 31 57 -17 22 -74 -53 -194 -60 -257 -14
-14 10 -37 41 -51 69 l-25 49 -5 561 -5 561 -70 -24z"/>
<path d="M11602 3750 c-124 -44 -357 -83 -547 -91 -20 -1 -12 -4 24 -10 29 -5
66 -17 82 -26 59 -35 59 -34 59 -570 0 -305 4 -502 10 -525 16 -56 69 -119
125 -147 46 -24 60 -26 180 -26 122 0 134 2 190 28 33 16 73 40 88 55 36 33
82 110 72 120 -3 4 -11 -2 -17 -12 -21 -37 -81 -96 -104 -102 -34 -9 -63 4
-79 36 -13 25 -15 121 -15 660 0 346 -3 630 -7 629 -5 0 -32 -9 -61 -19z"/>
<path d="M13490 3743 c-123 -40 -256 -63 -412 -70 -82 -3 -148 -10 -148 -15 0
-4 19 -8 43 -8 23 0 61 -9 85 -20 74 -33 72 -20 72 -607 0 -473 -2 -521 -18
-553 -19 -40 -88 -80 -137 -80 -16 0 -37 -5 -45 -10 -10 -6 135 -10 418 -10
286 0 431 3 427 10 -3 6 -18 10 -32 10 -46 0 -101 22 -130 52 l-28 29 -3 650
c-1 357 -6 649 -10 648 -4 -1 -41 -12 -82 -26z"/>
<path d="M14415 3764 c-264 -55 -441 -202 -526 -436 -55 -150 -58 -361 -8
-511 68 -204 225 -361 434 -434 74 -26 91 -28 235 -28 181 0 238 12 375 79 83
41 218 146 205 159 -3 3 -37 -14 -75 -39 -101 -65 -186 -89 -315 -89 -95 0
-110 3 -163 28 -111 55 -192 163 -238 317 -19 64 -23 106 -26 289 -8 348 21
534 93 606 20 20 49 38 65 42 16 3 32 10 35 14 5 9 -53 10 -91 3z"/>
<path d="M14630 3767 c0 -4 17 -14 38 -22 54 -23 89 -61 113 -124 26 -67 30
-179 10 -260 -27 -109 -138 -181 -279 -181 -29 0 -52 -4 -52 -10 0 -6 121 -10
344 -10 l344 0 6 31 c12 62 6 177 -13 238 -47 150 -169 268 -330 317 -51 16
-181 30 -181 21z"/>
<path d="M15860 3761 c-65 -38 -306 -84 -515 -97 -107 -7 -108 -8 -56 -16 68
-10 99 -26 125 -61 21 -28 21 -39 24 -555 2 -487 1 -530 -15 -562 -20 -40 -89
-80 -138 -80 -16 0 -37 -5 -45 -10 -10 -6 135 -10 418 -10 286 0 431 3 427 10
-3 6 -18 10 -33 10 -52 0 -101 21 -131 56 l-31 35 0 644 c0 355 -3 645 -7 645
-5 0 -15 -5 -23 -9z"/>
<path d="M16231 3754 c-120 -43 -207 -140 -246 -273 -6 -21 -3 -19 24 12 40
45 107 72 160 64 140 -18 178 -197 65 -303 -19 -19 -32 -38 -29 -44 13 -22 68
-41 123 -43 167 -6 287 108 300 284 9 127 -42 231 -139 283 -67 37 -186 46
-258 20z"/>
<path d="M4445 677 c-61 -34 -87 -87 -83 -169 5 -102 27 -123 211 -202 46 -20
61 -32 72 -59 28 -68 -17 -144 -92 -154 -32 -4 -45 0 -70 21 -18 15 -37 42
-43 61 -11 33 -14 35 -56 35 -40 0 -44 -2 -44 -25 0 -32 25 -93 48 -118 54
-60 180 -79 260 -38 24 12 54 39 69 63 24 36 28 51 28 117 0 113 -34 156 -156
202 -94 36 -117 50 -129 78 -14 36 -5 73 26 102 47 44 136 20 149 -41 6 -28 9
-30 56 -30 l49 0 -7 33 c-12 65 -52 116 -106 136 -50 19 -138 13 -182 -12z"/>
<path d="M5259 686 c-90 -32 -165 -102 -207 -194 -37 -81 -36 -194 2 -279 34
-76 103 -144 180 -179 85 -39 196 -39 284 1 146 65 226 217 200 380 -18 116
-105 224 -214 264 -64 24 -188 28 -245 7z m190 -82 c103 -30 181 -140 181
-254 0 -88 -63 -190 -144 -233 -54 -28 -165 -30 -216 -3 -88 46 -150 145 -150
240 0 107 73 213 170 246 68 24 92 24 159 4z"/>
<path d="M13719 686 c-90 -32 -165 -102 -207 -195 -21 -45 -26 -72 -26 -136
-1 -69 3 -89 30 -145 53 -111 145 -181 263 -201 150 -24 300 53 372 193 35 66
39 203 8 283 -30 81 -112 164 -192 193 -67 25 -189 29 -248 8z m187 -81 c175
-52 240 -281 118 -423 -54 -63 -104 -86 -189 -86 -79 -1 -126 18 -176 68 -135
136 -85 376 91 436 67 23 92 24 156 5z"/>
<path d="M2040 355 l0 -335 45 0 45 0 0 282 c0 172 4 278 9 273 5 -6 58 -131
117 -280 59 -148 112 -273 116 -276 5 -3 20 -4 33 -1 21 4 37 37 131 276 58
149 110 275 115 281 5 5 9 -112 9 -273 l0 -282 45 0 45 0 0 335 0 336 -76 -3
-77 -3 -97 -248 c-53 -136 -99 -250 -102 -253 -3 -2 -36 73 -73 168 -37 95
-82 209 -99 253 l-32 80 -77 3 -77 3 0 -336z"/>
<path d="M3179 363 c-68 -179 -126 -330 -128 -335 -1 -5 21 -8 50 -6 l53 3 36
95 36 95 121 3 121 3 30 -78 c16 -43 32 -88 36 -100 6 -20 14 -23 61 -23 l53
0 -79 208 c-44 114 -101 264 -127 334 l-47 128 -46 0 -46 0 -124 -327z m215
72 c20 -61 36 -116 36 -123 0 -8 -22 -12 -78 -12 -43 0 -81 3 -84 6 -3 3 13
61 35 129 23 69 44 121 48 117 4 -4 23 -57 43 -117z"/>
<path d="M3940 355 l0 -335 50 0 50 0 0 335 0 335 -50 0 -50 0 0 -335z"/>
<path d="M6040 355 l0 -335 50 0 50 0 0 256 c0 140 3 253 8 250 4 -2 79 -117
167 -255 l160 -251 53 0 52 0 0 335 0 335 -50 0 -50 0 0 -257 0 -256 -163 254
-163 254 -57 3 -57 3 0 -336z"/>
<path d="M7390 355 l0 -337 168 4 167 3 63 34 c111 61 156 144 157 291 0 81
-4 103 -26 150 -36 77 -80 124 -147 157 -54 27 -66 28 -219 32 l-163 3 0 -337z
m319 229 c84 -35 141 -127 141 -229 0 -115 -38 -183 -126 -226 -37 -17 -65
-22 -142 -23 l-97 -1 -3 240 c-1 132 0 246 3 254 4 11 23 13 97 7 50 -4 107
-14 127 -22z"/>
<path d="M8270 355 l0 -335 180 0 180 0 0 40 0 39 -132 3 -133 3 -3 103 -3
102 136 0 135 0 0 45 0 44 -132 3 -133 3 0 100 0 100 133 3 132 3 0 39 0 40
-180 0 -180 0 0 -335z"/>
<path d="M9430 355 l0 -335 165 0 165 0 0 40 0 39 -112 3 -113 3 -3 293 -2
292 -50 0 -50 0 0 -335z"/>
<path d="M9970 635 c0 -42 3 -55 15 -55 8 0 15 -8 15 -19 0 -10 -7 -24 -15
-31 -17 -14 -21 -60 -5 -60 23 0 59 33 69 62 6 17 11 60 11 94 l0 64 -45 0
-45 0 0 -55z"/>
<path d="M10410 355 l0 -335 180 0 180 0 0 40 0 40 -130 0 -130 0 0 105 0 105
130 0 130 0 0 45 0 45 -130 0 -130 0 0 105 0 105 130 0 130 0 0 40 0 40 -180
0 -180 0 0 -335z"/>
<path d="M11110 355 l0 -335 45 0 45 0 0 281 c0 154 4 278 8 275 4 -2 57 -129
117 -280 l110 -276 32 0 31 0 107 273 c59 149 112 276 116 282 5 5 9 -114 9
-273 l0 -282 45 0 45 0 0 335 0 336 -76 -3 -77 -3 -96 -247 c-53 -136 -99
-250 -102 -253 -4 -3 -32 61 -64 142 -32 81 -77 195 -99 253 l-42 105 -77 3
-77 3 0 -336z"/>
<path d="M12168 355 l3 -335 44 0 44 0 3 133 3 132 100 5 c123 7 174 30 205
90 46 90 34 190 -30 251 -49 47 -100 59 -252 59 l-123 0 3 -335z m223 245 c68
-12 109 -52 109 -106 0 -83 -58 -124 -175 -124 l-65 0 0 113 c0 63 3 117 7
120 9 10 62 9 124 -3z"/>
<path d="M12900 355 l0 -335 165 0 165 0 0 40 0 40 -115 0 -115 0 0 295 0 295
-50 0 -50 0 0 -335z"/>
<path d="M14500 355 l0 -335 50 0 50 0 0 335 0 335 -50 0 -50 0 0 -335z"/>
</g>
</svg>
