<svg width="207" height="55" viewBox="0 0 207 55" fill="none" xmlns="http://www.w3.org/2000/svg"><path d="M33.19 28.894c0-3.424-.024-7.828-.052-11.523-.028-3.87-1.192-7.403-3.597-10.456-2.508-3.187-5.824-4.994-9.77-5.695-5.299-.94-10.38.406-14.148 4.763L0 1.267v35.617h5.623V6.214a4.3 4.3 0 00.025-.21l3.473 2.914s.216-.213.457-.444l.026-.026.161-.158c4.208-4.128 10.503-3.913 14.411.51 2.447 2.767 3.459 6.077 3.452 9.728-.002 1.655-.007 3.003-.01 4.39l-.009-.008c-.007 1.596-.016 11.037-.028 13.974h5.604c.002-.916.005-7.117.005-7.983v-.007zm-5.611 8.931c0 .529.014-.611-.01.947-.046 3.277-.667 6.458-2.217 9.4-1.548 2.937-3.707 5.148-7.084 5.842-.024.004-.035.063-.084.16.473.029.934.029 1.423-.012 4.518-.358 8.372-3.079 10.997-6.797 1.672-2.369 2.541-5.016 2.576-7.918.01-.814.005-.956 0-1.62h-5.599l-.002-.002zM14.915 54.012c-3.379-.694-5.536-2.902-7.083-5.842-1.548-2.94-2.171-6.12-2.218-9.4-.024-1.558-.01-.418-.01-.946H.006c-.004.663-.009.805 0 1.62.036 2.901.904 5.548 2.576 7.917C5.206 51.08 9.06 53.8 13.578 54.159c.49.037.95.04 1.424.011-.05-.096-.063-.155-.084-.16l-.003.002z" fill="#424242"/><path d="M23.326 36.882H9.723v.942h13.603v-.942zm-5.626-3.12l5.085-.316L17.7 23.132c.499 2.019 1.651 6.396 0 10.632v-.002z" fill="#424242"/><path d="M14.456 34.071v.532c-2.241.094-4.194.139-4.194.139l.934 1.223c2.873-.003 8.852 0 8.852 0l.834-1.894c-.359.128-1.37.236-2.635.328v-.328h-.55V22.383h-.323v4.21l-1.843-5.072-4.515 11.462h6.358v1.088h-2.92.002zm27.503-8.861l.222.334.222 11.722c.03 1.2.885 2.343 2.714 2.343v.169h-6.09v-.17c1.829 0 2.684-1.17 2.714-2.342l.222-12.056h-.004zm14.67 14.568h-3.074L41.984 22.393c-.721-1.087-1.522-1.425-2.936-1.425V20.8h7.39l10.187 15.376v3.599l.004.004zm-.055-6.42l-.222-.308-.331-9.739c-.03-1.201-.885-2.343-2.714-2.343V20.8h6.09v.17c-1.829 0-2.713 1.17-2.713 2.342l-.11 10.047zm9.629-7.645c-1.631.194-2.185 1.59-2.185 7.032 0 5.443.554 6.978 2.185 7.143v.169c-3.183 0-6.89-2.622-6.89-7.312s3.652-7.172 6.89-7.201v.169zm7.972 7.032c0 4.66-3.682 7.312-6.865 7.312v-.17c1.632-.169 2.16-1.924 2.16-7.142s-.554-6.863-2.16-7.032v-.17c3.213 0 6.865 2.483 6.865 7.202zm.776-6.14c2.575 0 4.651-.279 6.614-1.086v12.669c0 .698.415 1.425 2.076 1.425v.17h-8.72v-.17c1.662 0 2.077-.727 2.077-1.425v-9.933c0-1.007-.47-1.48-2.047-1.48v-.17zm1.414-5.247c0-1.451 1.161-2.428 2.822-2.428 1.66 0 2.823.977 2.823 2.428 0 1.45-1.162 2.456-2.823 2.456-1.66 0-2.822-.977-2.822-2.456zm13.973 16.83c0 .697.416 1.425 2.076 1.425v.169h-8.719v-.17c1.661 0 2.076-.727 2.076-1.424V28.28c0-1.007-.47-1.48-2.046-1.48v-.17c2.575 0 4.65-.279 6.613-1.086v12.644zm7.474-9.63c0 1.925-1.355 3.18-2.852 3.18-.663 0-1.246-.168-1.577-.613.524-.279 1.078-.866 1.078-1.898 0-.808-.583-1.506-1.552-1.506-.721 0-1.3.419-1.66 1.062v-.224c.524-1.785 1.883-3.015 3.598-3.015 1.908 0 2.96 1.34 2.96 3.015h.005zm6.694 9.63c0 .697.416 1.425 2.076 1.425v.169h-8.719v-.17c1.661 0 2.076-.727 2.076-1.424V28.28c0-1.007-.47-1.48-2.046-1.48v-.17c2.575 0 4.651-.279 6.613-1.086v12.644zm9.189-8.708v8.708c0 .697.386 1.425 2.047 1.425v.169h-8.69v-.17c1.631 0 2.076-.727 2.076-1.424V29.48c0-1.564-.608-2.372-1.938-2.372-.775 0-1.467.39-1.828.837v-.169c.637-1.171 2.021-2.232 4.043-2.232 2.629 0 4.29 1.17 4.29 3.936zm9.159 0v8.708c0 .697.416 1.425 2.076 1.425v.169h-8.719v-.17c1.632 0 2.076-.727 2.076-1.424V29.48c0-1.564-.608-2.372-1.937-2.372-.776 0-1.468.39-1.829.837v-.169c.638-1.171 2.022-2.232 4.043-2.232 2.63 0 4.29 1.17 4.29 3.936zm9.369-3.767c-1.632.194-2.185 1.59-2.185 7.032 0 5.443.553 6.978 2.185 7.143v.169c-3.184 0-6.891-2.622-6.891-7.312s3.653-7.172 6.891-7.201v.169zm7.972 7.032c0 4.66-3.682 7.312-6.865 7.312v-.17c1.631-.169 2.16-1.924 2.16-7.142s-.554-6.863-2.16-7.032v-.17c3.212 0 6.865 2.483 6.865 7.202zm7.048 3.375c0 1.564.524 2.372 1.908 2.372.721 0 1.3-.224 1.908-.867v.17c-.637 1.2-2.046 2.262-4.29 2.262-2.491 0-4.097-1.172-4.097-3.937v-7.84c0-1.007-.47-1.48-2.047-1.48v-.17c2.575 0 4.651-.279 6.614-1.086V36.12h.004zm9.218 1.784c0 .808.247 1.146.747 1.146.415 0 .884-.418 1.329-1.256h.168c-.445 1.535-1.938 2.263-3.766 2.263-1.938 0-3.045-1.117-3.045-2.736V28.28c0-1.007-.47-1.48-1.967-1.48v-.17c2.491 0 4.206-.279 6.53-1.086v12.364l.004-.004zm12.989-.274v.169c-.885 1.285-2.659 2.262-4.731 2.262-2.491 0-4.261-1.146-4.261-3.937V26.97h-1.438l.306-.419h1.136v-3.015c1.69 0 3.347-.528 4.538-1.564v4.575h3.737l-.306.419H165V36.2c0 1.396.524 2.846 1.828 2.846.776 0 1.716-.503 2.63-1.425l-.008.009z" fill="#424242"/><path d="M169.057 26.605c2.575 0 4.651-.279 6.613-1.086v12.669c0 .698.416 1.425 2.076 1.425v.17h-8.719v-.17c1.661 0 2.076-.727 2.076-1.425v-9.933c0-1.007-.469-1.48-2.046-1.48v-.17zm1.413-5.247c0-1.451 1.162-2.428 2.822-2.428 1.661 0 2.823.977 2.823 2.428 0 1.45-1.162 2.456-2.823 2.456-1.66 0-2.822-.977-2.822-2.456zm7.835 11.387c0-4.69 3.544-7.172 6.781-7.201v.169c-1.631.194-2.076 1.59-2.076 6.922 0 4.018 1.77 6.225 4.236 6.225 1.577 0 2.739-.448 4.043-1.48v.169c-1.439 1.844-4.068 2.512-5.867 2.512-3.544 0-7.113-2.622-7.113-7.312l-.004-.004zm6.228-1.171c2.436 0 3.459-.783 3.459-3.125 0-1.34-.553-2.567-1.799-2.736v-.17c3.653 0 5.427 2.622 5.427 4.745 0 .448-.054 1.032-.138 1.45h-6.945v-.168l-.004.004zm14.387 6.614c0 .697.416 1.425 2.076 1.425v.169h-8.719v-.17c1.661 0 2.076-.727 2.076-1.424V28.28c0-1.007-.469-1.48-2.046-1.48v-.17c2.575 0 4.651-.279 6.613-1.086v12.644zm7.474-9.63c0 1.925-1.355 3.18-2.852 3.18-.663 0-1.246-.168-1.577-.613.524-.279 1.078-.866 1.078-1.898 0-.808-.583-1.506-1.552-1.506-.721 0-1.3.419-1.661 1.062v-.224c.525-1.785 1.884-3.015 3.599-3.015 1.908 0 2.961 1.34 2.961 3.015h.004zM42.162.547h.968L45.232 2.4h-1.309l-1.262-1.083L41.369 2.4h-1.338l2.13-1.853zm-.076 2.77h1.086V14.27h-1.086V3.317zm5.316 0h1.087v9.963h4.491v.994h-5.578V3.317zm8.512 0h5.947v.994H57v3.937h4.696v.994H57v4.042h4.86v.994h-5.946V3.317zm15.809 0h3.17c1.338 0 2.66.326 3.54.905 1.908 1.201 2.466 3.286 2.466 4.605 0 1.024-.399 3.214-2.466 4.546-.88.58-2.202.905-3.54.905h-3.17V3.317zm1.086 9.963h1.573c.985 0 2.482 0 3.728-.888.662-.562 1.703-1.704 1.703-3.611 0-1.45-.722-2.8-1.85-3.629-.969-.634-1.984-.845-3.581-.845h-1.573v8.973zm11.683-9.963h5.947v.994h-4.86v3.937h4.697v.994h-4.698v4.042h4.861v.994h-5.947V3.317z" fill="#424242"/><g clip-path="url(#clip0_1850_29961)" fill="#424242"><path d="M45.098 50.365c-.186-.202-.752-.842-1.777-.842-1.315 0-2.347 1.026-2.347 2.29 0 1.265 1.094 2.324 2.332 2.324a2.33 2.33 0 001.723-.794h1.136c-.698 1.173-1.885 1.592-2.867 1.592-1.792 0-3.243-1.43-3.243-3.129 0-1.698 1.486-3.084 3.25-3.084.478 0 1.246.114 1.93.58.57.39.81.795.973 1.06h-1.11v.003zm6.883 4.57c-1.885 0-3.286-1.464-3.286-3.107 0-1.643 1.358-3.106 3.286-3.106 1.929 0 3.286 1.415 3.286 3.121s-1.408 3.092-3.286 3.092zm0-5.412c-1.63 0-2.362 1.35-2.362 2.305 0 .956.74 2.305 2.362 2.305s2.367-1.342 2.367-2.283c0-1.058-.795-2.33-2.367-2.33v.003zm11.991 5.297v-5.054h-.027l-2.126 5.055h-.555l-2.134-5.055h-.015v5.055h-.924v-5.985h1.451l1.894 4.588 1.905-4.588h1.45v5.985h-.923.004zm9.934 0v-5.054h-.027l-2.127 5.055h-.554l-2.134-5.055h-.016v5.055h-.923v-5.985h1.451l1.893 4.588 1.905-4.588h1.451v5.985h-.923.004zm8.374-1.933c0 .68-.24 1.173-.64 1.537a2.367 2.367 0 01-1.479.51 2.375 2.375 0 01-1.478-.51c-.4-.364-.64-.857-.64-1.537v-4.051h.923v4.029c0 1.107.854 1.272 1.195 1.272.342 0 1.195-.162 1.195-1.272v-4.03h.924v4.052zm7.294 1.933l-3.123-4.628h-.016v4.629h-.923v-5.985h1.008l3.073 4.555h.016v-4.555h.923v5.985h-.958zm8.316 0l-.698-1.764h-2.27l-.698 1.765h-.974l2.398-5.985h.826l2.398 5.985h-.982zm-1.016-2.562l-.803-2.29h-.016l-.81 2.29h1.629zm8.581.629c0 .68-.24 1.173-.64 1.537a2.367 2.367 0 01-1.478.51 2.375 2.375 0 01-1.478-.51c-.4-.364-.64-.857-.64-1.537v-4.051h.923v4.029c0 1.107.854 1.272 1.195 1.272.341 0 1.195-.162 1.195-1.272v-4.03h.923v4.052zm3.865 1.933v-5.183h-1.211v-.801h3.349v.801h-1.211v5.184h-.927zm4.719 0v-5.984h3.406v.801h-2.483v1.765h2.483v.801h-2.483v1.82h2.483v.801h-3.406v-.003zm.698-6.888l1.905-1.037.377.654-1.921.986-.357-.607-.004.004zm10.033.904h2.048c1.315 0 2.099.478 2.58 1.1.454.598.648 1.326.648 1.907 0 .809-.326 1.673-.795 2.11-.726.68-1.579.864-2.468.864h-2.013v-5.981zm.923 5.183h1.102c1.109 0 2.331-.525 2.331-2.176 0-.904-.589-2.21-2.312-2.21h-1.117v4.386h-.004zm7.287.801v-5.984h3.407v.801h-2.483v1.765h2.483v.801h-2.483v1.82h2.483v.801h-3.407v-.003zm15.544-4.455c-.186-.202-.753-.842-1.777-.842-1.315 0-2.347 1.026-2.347 2.29 0 1.265 1.094 2.324 2.332 2.324.667 0 1.288-.309 1.722-.794h1.137c-.698 1.173-1.886 1.592-2.867 1.592-1.793 0-3.244-1.43-3.244-3.129 0-1.698 1.486-3.08 3.252-3.08.477 0 1.245.114 1.928.58.57.39.811.794.974 1.06h-1.11zm6.879 4.57c-1.885 0-3.286-1.464-3.286-3.107 0-1.643 1.358-3.106 3.286-3.106 1.929 0 3.286 1.415 3.286 3.121s-1.408 3.092-3.286 3.092zm0-5.412c-1.629 0-2.362 1.35-2.362 2.305 0 .956.741 2.305 2.362 2.305 1.622 0 2.367-1.342 2.367-2.283 0-1.058-.795-2.33-2.367-2.33v.003zm11.991 5.297v-5.054h-.027l-2.126 5.055h-.555l-2.134-5.055h-.015v5.055h-.924v-5.985h1.451l1.894 4.588 1.905-4.588h1.451v5.985h-.924.004zm9.938 0v-5.054h-.028l-2.126 5.055h-.554l-2.134-5.055h-.016v5.055h-.923v-5.985h1.451l1.893 4.588 1.905-4.588h1.451v5.985h-.923.004zm8.369-1.933c0 .68-.24 1.173-.64 1.537a2.367 2.367 0 01-1.478.51 2.375 2.375 0 01-1.478-.51c-.4-.364-.64-.857-.64-1.537v-4.051h.923v4.029c0 1.107.854 1.272 1.195 1.272.342 0 1.195-.162 1.195-1.272v-4.03h.923v4.052zM193 54.82l-3.124-4.628h-.015v4.629h-.923v-5.985h1.008l3.073 4.555h.015v-4.555h.924v5.985H193zm4.113 0v-5.984h3.407v.801h-2.483v1.765h2.483v.801h-2.483v1.82h2.483v.801h-3.407v-.003zm6.924-1.771c0 .202.093 1.084 1.024 1.084.582 0 1.016-.378 1.016-1.01 0-.673-.582-.817-1.016-.979-.846-.308-1.052-.404-1.339-.672-.291-.269-.426-.702-.426-1.125 0-.695.57-1.625 1.765-1.625 1.051 0 1.812.654 1.812 1.665h-.924c0-.662-.512-.864-.888-.864a.846.846 0 00-.846.816c0 .574.57.728.846.824.795.283 1.94.518 1.94 1.956 0 1.044-.776 1.812-1.94 1.812-.869 0-1.948-.551-1.948-1.886h.924v.004z"/></g><defs><clipPath id="clip0_1850_29961"><path fill="#fff" transform="translate(40.055 46.895)" d="M0 0h166.944v8.04H0z"/></clipPath></defs></svg>